<svg width="15" height="20" viewBox="0 0 15 20" fill="none" xmlns="http://www.w3.org/2000/svg">
<path d="M14 16.5C14 17.2956 13.6839 18.0587 13.1213 18.6213C12.5587 19.1839 11.7956 19.5 11 19.5H4C3.20435 19.5 2.44129 19.1839 1.87868 18.6213C1.31607 18.0587 1 17.2956 1 16.5V4.5H0V1.5H4.5L5.5 0.5H9.5L10.5 1.5H15V4.5H14V16.5ZM2 4.5V16.5C2 17.0304 2.21071 17.5391 2.58579 17.9142C2.96086 18.2893 3.46957 18.5 4 18.5H11C11.5304 18.5 12.0391 18.2893 12.4142 17.9142C12.7893 17.5391 13 17.0304 13 16.5V4.5H2ZM14 3.5V2.5H10L9 1.5H6L5 2.5H1V3.5H14ZM4 6.5H5V16.5H4V6.5ZM10 6.5H11V16.5H10V6.5Z" fill="black"/>
</svg>
