<svg width="20" height="20" viewBox="0 0 20 20" fill="none" xmlns="http://www.w3.org/2000/svg">
<path d="M3.33337 7.22214H6.11115V16.6666H3.33337V7.22214ZM4.71393 6.11103H4.69837C3.86948 6.11103 3.33337 5.49325 3.33337 4.72159C3.33337 3.93325 3.88615 3.33325 4.73004 3.33325C5.57504 3.33325 6.0956 3.93325 6.11115 4.72159C6.11115 5.4927 5.57504 6.11103 4.71393 6.11103ZM16.6667 16.6666H13.8889V11.6116C13.8889 10.3905 13.2084 9.55714 12.1156 9.55714C11.2817 9.55714 10.8306 10.1194 10.6117 10.6627C10.5317 10.8571 10.5556 11.3949 10.5556 11.6666V16.6666H7.77782V7.22214H10.5556V8.67547C10.9562 8.05547 11.5834 7.22214 13.1878 7.22214C15.1756 7.22214 16.6662 8.47214 16.6662 11.2633L16.6667 16.6666Z" fill="#0B173D"/>
</svg>
