<svg width="24" height="20" viewBox="0 0 24 20" fill="none" xmlns="http://www.w3.org/2000/svg">
<path d="M22.5 3.875H7.625C7.39294 3.875 7.17038 3.78281 7.00628 3.61872C6.84219 3.45462 6.75 3.23206 6.75 3C6.75 2.76794 6.84219 2.54538 7.00628 2.38128C7.17038 2.21719 7.39294 2.125 7.625 2.125H22.5C22.7321 2.125 22.9546 2.21719 23.1187 2.38128C23.2828 2.54538 23.375 2.76794 23.375 3C23.375 3.23206 23.2828 3.45462 23.1187 3.61872C22.9546 3.78281 22.7321 3.875 22.5 3.875Z" fill="#121212"/>
<path d="M4.125 3.875H1.5C1.26794 3.875 1.04538 3.78281 0.881282 3.61872C0.717187 3.45462 0.625 3.23206 0.625 3C0.625 2.76794 0.717187 2.54538 0.881282 2.38128C1.04538 2.21719 1.26794 2.125 1.5 2.125H4.125C4.35706 2.125 4.57962 2.21719 4.74372 2.38128C4.90781 2.54538 5 2.76794 5 3C5 3.23206 4.90781 3.45462 4.74372 3.61872C4.57962 3.78281 4.35706 3.875 4.125 3.875Z" fill="#121212"/>
<path d="M16.375 10.875H1.5C1.26794 10.875 1.04538 10.7828 0.881282 10.6187C0.717187 10.4546 0.625 10.2321 0.625 10C0.625 9.76794 0.717187 9.54538 0.881282 9.38128C1.04538 9.21719 1.26794 9.125 1.5 9.125H16.375C16.6071 9.125 16.8296 9.21719 16.9937 9.38128C17.1578 9.54538 17.25 9.76794 17.25 10C17.25 10.2321 17.1578 10.4546 16.9937 10.6187C16.8296 10.7828 16.6071 10.875 16.375 10.875Z" fill="#121212"/>
<path d="M7.625 17.875H1.5C1.26794 17.875 1.04538 17.7828 0.881282 17.6187C0.717187 17.4546 0.625 17.2321 0.625 17C0.625 16.7679 0.717187 16.5454 0.881282 16.3813C1.04538 16.2172 1.26794 16.125 1.5 16.125H7.625C7.85706 16.125 8.07962 16.2172 8.24372 16.3813C8.40781 16.5454 8.5 16.7679 8.5 17C8.5 17.2321 8.40781 17.4546 8.24372 17.6187C8.07962 17.7828 7.85706 17.875 7.625 17.875Z" fill="#121212"/>
<path d="M5.875 5.625C5.35582 5.625 4.84831 5.47105 4.41663 5.18261C3.98495 4.89417 3.6485 4.4842 3.44982 4.00454C3.25114 3.52489 3.19915 2.99709 3.30044 2.48789C3.40173 1.97869 3.65173 1.51096 4.01885 1.14385C4.38596 0.776733 4.85369 0.526726 5.36289 0.42544C5.87209 0.324154 6.39989 0.376137 6.87954 0.574817C7.3592 0.773497 7.76917 1.10995 8.05761 1.54163C8.34605 1.97331 8.5 2.48082 8.5 3C8.5 3.69619 8.22344 4.36387 7.73116 4.85616C7.23887 5.34844 6.57119 5.625 5.875 5.625ZM5.875 2.125C5.70194 2.125 5.53277 2.17632 5.38888 2.27247C5.24498 2.36861 5.13283 2.50527 5.06661 2.66515C5.00038 2.82504 4.98305 3.00097 5.01681 3.17071C5.05058 3.34044 5.13391 3.49635 5.25628 3.61872C5.37865 3.74109 5.53456 3.82443 5.7043 3.85819C5.87403 3.89195 6.04996 3.87462 6.20985 3.8084C6.36973 3.74217 6.50639 3.63002 6.60254 3.48613C6.69868 3.34223 6.75 3.17306 6.75 3C6.75 2.76794 6.65781 2.54538 6.49372 2.38128C6.32962 2.21719 6.10707 2.125 5.875 2.125Z" fill="#121212"/>
<path d="M18.125 12.625C17.6058 12.625 17.0983 12.471 16.6666 12.1826C16.235 11.8942 15.8985 11.4842 15.6998 11.0045C15.5011 10.5249 15.4492 9.99709 15.5504 9.48789C15.6517 8.97869 15.9017 8.51096 16.2688 8.14385C16.636 7.77673 17.1037 7.52673 17.6129 7.42544C18.1221 7.32415 18.6499 7.37614 19.1295 7.57482C19.6092 7.7735 20.0192 8.10995 20.3076 8.54163C20.596 8.97331 20.75 9.48083 20.75 10C20.75 10.6962 20.4734 11.3639 19.9812 11.8562C19.4889 12.3484 18.8212 12.625 18.125 12.625ZM18.125 9.125C17.9519 9.125 17.7828 9.17632 17.6389 9.27247C17.495 9.36861 17.3828 9.50527 17.3166 9.66515C17.2504 9.82504 17.2331 10.001 17.2668 10.1707C17.3006 10.3404 17.3839 10.4963 17.5063 10.6187C17.6287 10.7411 17.7846 10.8244 17.9543 10.8582C18.124 10.892 18.3 10.8746 18.4598 10.8084C18.6197 10.7422 18.7564 10.63 18.8525 10.4861C18.9487 10.3422 19 10.1731 19 10C19 9.76794 18.9078 9.54538 18.7437 9.38128C18.5796 9.21719 18.3571 9.125 18.125 9.125Z" fill="#121212"/>
<path d="M9.375 19.625C8.85583 19.625 8.34831 19.471 7.91663 19.1826C7.48495 18.8942 7.1485 18.4842 6.94982 18.0045C6.75114 17.5249 6.69915 16.9971 6.80044 16.4879C6.90173 15.9787 7.15173 15.511 7.51885 15.1438C7.88596 14.7767 8.35369 14.5267 8.86289 14.4254C9.37209 14.3242 9.89989 14.3761 10.3795 14.5748C10.8592 14.7735 11.2692 15.11 11.5576 15.5416C11.846 15.9733 12 16.4808 12 17C12 17.6962 11.7234 18.3639 11.2312 18.8562C10.7389 19.3484 10.0712 19.625 9.375 19.625ZM9.375 16.125C9.20194 16.125 9.03277 16.1763 8.88888 16.2725C8.74498 16.3686 8.63283 16.5053 8.56661 16.6652C8.50038 16.825 8.48305 17.001 8.51681 17.1707C8.55058 17.3404 8.63391 17.4963 8.75628 17.6187C8.87865 17.7411 9.03456 17.8244 9.2043 17.8582C9.37403 17.892 9.54996 17.8746 9.70985 17.8084C9.86974 17.7422 10.0064 17.63 10.1025 17.4861C10.1987 17.3422 10.25 17.1731 10.25 17C10.25 16.7679 10.1578 16.5454 9.99372 16.3813C9.82963 16.2172 9.60707 16.125 9.375 16.125Z" fill="#121212"/>
<path d="M22.5 10.875H19.875C19.6429 10.875 19.4204 10.7828 19.2563 10.6187C19.0922 10.4546 19 10.2321 19 10C19 9.76794 19.0922 9.54538 19.2563 9.38128C19.4204 9.21719 19.6429 9.125 19.875 9.125H22.5C22.7321 9.125 22.9546 9.21719 23.1187 9.38128C23.2828 9.54538 23.375 9.76794 23.375 10C23.375 10.2321 23.2828 10.4546 23.1187 10.6187C22.9546 10.7828 22.7321 10.875 22.5 10.875Z" fill="#121212"/>
<path d="M22.5 17.875H11.125C10.8929 17.875 10.6704 17.7828 10.5063 17.6187C10.3422 17.4546 10.25 17.2321 10.25 17C10.25 16.7679 10.3422 16.5454 10.5063 16.3813C10.6704 16.2172 10.8929 16.125 11.125 16.125H22.5C22.7321 16.125 22.9546 16.2172 23.1187 16.3813C23.2828 16.5454 23.375 16.7679 23.375 17C23.375 17.2321 23.2828 17.4546 23.1187 17.6187C22.9546 17.7828 22.7321 17.875 22.5 17.875Z" fill="#121212"/>
</svg>
