<svg width="20" height="20" viewBox="0 0 20 20" fill="none" xmlns="http://www.w3.org/2000/svg">
<path d="M18.0283 3.35928C17.3492 3.68011 16.1933 4.28178 15.6125 4.39678C15.59 4.40261 15.5717 4.41011 15.55 4.41594C14.8725 3.74761 13.9442 3.33344 12.9167 3.33344C10.8458 3.33344 9.16665 5.01261 9.16665 7.08344C9.16665 7.19261 9.15749 7.39344 9.16665 7.50011C6.48499 7.50011 4.52665 6.10094 3.06082 4.30261C2.86499 4.06094 2.65665 4.18678 2.61332 4.35844C2.51582 4.74678 2.48249 5.39594 2.48249 5.85928C2.48249 7.02678 3.39499 8.17344 4.81582 8.88428C4.55415 8.95178 4.26582 9.00011 3.96582 9.00011C3.61249 9.00011 3.20582 8.90761 2.84999 8.72094C2.71832 8.65178 2.43415 8.67094 2.51832 9.00761C2.85582 10.3568 4.39582 11.3043 5.77165 11.5801C5.45915 11.7643 4.79249 11.7268 4.48582 11.7268C4.37249 11.7268 3.97832 11.7001 3.72332 11.6684C3.49082 11.6401 3.13332 11.7001 3.43249 12.1534C4.07499 13.1259 5.52832 13.7368 6.77915 13.7601C5.62749 14.6634 3.74415 14.9934 1.93999 14.9934C1.57499 14.9851 1.59332 15.4009 1.88749 15.5551C3.21832 16.2534 5.39832 16.6668 6.95582 16.6668C13.1475 16.6668 16.6667 11.9476 16.6667 7.49928C16.6667 7.42761 16.665 7.27761 16.6625 7.12678C16.6625 7.11178 16.6667 7.09761 16.6667 7.08261C16.6667 7.06011 16.66 7.03844 16.66 7.01594C16.6575 6.90261 16.655 6.79678 16.6525 6.74178C17.1433 6.38761 17.895 5.77261 18.275 5.30178C18.4042 5.14178 18.3 4.94761 18.1242 5.00844C17.6717 5.16594 16.8892 5.47094 16.3992 5.52928C17.38 4.88011 17.865 4.31511 18.2817 3.68761C18.4242 3.47344 18.2458 3.25594 18.0283 3.35928Z" fill="#0B173D"/>
</svg>
